<svg width="48" height="29" viewBox="0 0 48 29" fill="none" xmlns="http://www.w3.org/2000/svg">
<path d="M26.1889 14.9752C26.1889 19.2563 24.9902 22.664 22.5928 25.1984C20.1954 27.7328 16.9815 29 12.9511 29C8.99023 29 5.83713 27.7071 3.49186 25.1213C1.16395 22.5185 0 19.0251 0 14.6413C0 10.2575 1.19001 6.73841 3.57003 4.08415C5.93268 1.41275 9.0684 0.0770593 12.9772 0.0770593C17.0945 0.0770593 20.3257 1.40419 22.671 4.05846C25.0163 6.71273 26.1889 10.3516 26.1889 14.9752ZM16.0521 14.6413C16.0521 13.6138 15.9826 12.6891 15.8436 11.8671C15.7047 11.028 15.5049 10.3174 15.2443 9.73516C14.9837 9.13581 14.671 8.67346 14.3062 8.3481C13.9414 8.02273 13.5331 7.86005 13.0814 7.86005C12.1954 7.86005 11.4832 8.47653 10.9446 9.70948C10.4061 10.7883 10.1368 12.4066 10.1368 14.5642C10.1368 16.6876 10.4061 18.3059 10.9446 19.419C11.4832 20.6519 12.2041 21.2684 13.1075 21.2684C13.9587 21.2684 14.6623 20.6605 15.2182 19.4446C15.7742 18.0918 16.0521 16.4907 16.0521 14.6413Z" fill="#92CFCF"/>
<path d="M40.7036 28.4349H30.2541V0.667848H40.7036L40.1563 6.08769C41.7372 2.02923 44.3518 0 48 0V11.5589C46.8534 10.9424 45.8806 10.6342 45.0814 10.6342C43.6743 10.6342 42.5885 11.1394 41.8241 12.1497C41.0771 13.1429 40.7036 14.5985 40.7036 16.5164V28.4349Z" fill="#92CFCF"/>
</svg>
